<svg width="1056" height="1056" viewBox="0 0 1056 1056" fill="none" xmlns="http://www.w3.org/2000/svg">
<path d="M1055.8 527.8C1055.8 555.1 1022.5 579.4 1018.4 605.6C1014.2 632.4 1038.3 665.8 1030.1 691C1021.7 716.7 982.5 729.6 970.4 753.3C958.2 777.3 970.7 816.5 955 838.1C939.2 859.9 897.9 860 879 878.9C860 897.9 859.9 939.1 838.2 954.9C816.6 970.7 777.3 958.1 753.3 970.4C729.6 982.5 716.8 1021.7 691.1 1030C665.8 1038.2 632.4 1014.1 605.6 1018.3C579.5 1022.4 555.2 1055.7 527.9 1055.7C500.6 1055.7 476.3 1022.4 450.2 1018.3C423.4 1014.1 390 1038.2 364.7 1030C339 1021.7 326.2 982.5 302.5 970.4C278.5 958.1 239.2 970.7 217.6 954.9C195.9 939.1 195.8 897.9 176.8 878.9C157.9 860 116.6 859.9 100.8 838.1C85.1 816.5 97.6 777.3 85.4 753.3C73.3 729.6 34.1 716.7 25.7 691C17.5 665.8 41.6 632.4 37.4 605.6C33.3 579.4 0 555.1 0 527.8C0 500.6 33.3 476.2 37.4 450.1C41.6 423.3 17.5 389.9 25.7 364.7C34.1 339 73.3 326.1 85.4 302.4C97.6 278.4 85.1 239.2 100.8 217.5C116.6 195.8 157.9 195.7 176.8 176.7C195.8 157.8 195.9 116.6 217.6 100.8C239.2 85 278.5 97.6 302.5 85.3C326.2 73.2 339 34 364.7 25.7C390 17.5 423.4 41.6 450.2 37.4C476.3 33.3 500.6 0 527.9 0C555.2 0 579.5 33.3 605.6 37.4C632.4 41.6 665.8 17.5 691.1 25.7C716.8 34 729.6 73.2 753.3 85.3C777.3 97.6 816.6 85 838.2 100.8C859.9 116.6 860 157.8 879 176.7C897.9 195.7 939.2 195.8 955 217.5C970.7 239.2 958.2 278.4 970.4 302.4C982.5 326.1 1021.7 339 1030.1 364.7C1038.3 389.9 1014.2 423.3 1018.4 450.1C1022.5 476.2 1055.8 500.6 1055.8 527.8Z" fill="url(#paint0_linear_71_25)"/>
<path d="M922.2 527.8C922.2 745.6 745.6 922.1 527.9 922.1C310.2 922.1 133.6 745.6 133.6 527.8C133.6 310.1 310.2 133.6 527.9 133.6C745.6 133.6 922.2 310.1 922.2 527.8Z" fill="white"/>
<path d="M885 527.8C885 725.1 725.1 885 527.9 885C330.7 885 170.8 725.1 170.8 527.8C170.8 330.6 330.7 170.7 527.9 170.7C725.1 170.7 885 330.6 885 527.8Z" fill="url(#paint1_linear_71_25)"/>
<path d="M751.1 383.2L489.4 710.6L461.5 745.6L425.9 715.7L304.7 614L383.4 535.4L451.1 616.1L649.7 310.1L751.1 383.2Z" fill="white"/>
<defs>
<linearGradient id="paint0_linear_71_25" x1="480.395" y1="-454.157" x2="1526.49" y2="371.514" gradientUnits="userSpaceOnUse">
<stop stop-color="#A5F227"/>
<stop offset="1" stop-color="#E2F227"/>
</linearGradient>
<linearGradient id="paint1_linear_71_25" x1="495.76" y1="-136.54" x2="1203.51" y2="422.078" gradientUnits="userSpaceOnUse">
<stop stop-color="#35BB2A"/>
<stop offset="1" stop-color="#96CA40"/>
</linearGradient>
</defs>
</svg>
